<svg height="472pt" viewBox="0 -3 472 471" width="472pt" xmlns="http://www.w3.org/2000/svg"><path d="m312 312.5v-64l38.992188-15.601562c-3.476563-14.300782-16.273438-24.375-30.992188-24.398438h-128v32c0 17.671875-14.328125 32-32 32h-48v160c0 17.671875 14.328125 32 32 32h176c17.671875 0 32-14.328125 32-32v-104zm0 0" fill="#20b2ad"/><path d="m312 312.5v-54.398438l-16 6.398438h-56c-4.417969 0-8 3.582031-8 8v48c0 4.417969 3.582031 8 8 8h56l56 22.398438v-22.398438zm0 0" fill="#1b8984"/><path d="m173.121094 269.621094c-4.117188 1.886718-8.59375 2.867187-13.121094 2.878906h-48v16h32c12.578125-.015625 23.976562-7.402344 29.121094-18.878906zm0 0" fill="#1b8984"/><path d="m256 312.5c-4.417969 0-8-3.582031-8-8v-48c0-4.417969 3.582031-8 8-8h56v64" fill="#ff7f00"/><path d="m248 288.5v16c0 4.417969 3.582031 8 8 8h56v-16h-56c-4.417969 0-8-3.582031-8-8zm0 0" fill="#db6a03"/><path d="m312 312.5 80 32v-128l-80 32zm0 0" fill="#ffd700"/><path d="m280 48.5h80c17.671875 0 32 14.328125 32 32v64c0 17.671875-14.328125 32-32 32h-80c-17.671875 0-32-14.328125-32-32v-64c0-17.671875 14.328125-32 32-32zm0 0" fill="#20b2ad"/><path d="m336 152.5c-35.347656 0-64-28.652344-64-64v-38.871094c-14.101562 3.613282-23.972656 16.3125-24 30.871094v64c0 17.671875 14.328125 32 32 32h80c14.558594-.027344 27.253906-9.898438 30.871094-24zm0 0" fill="#1b8984"/><path d="m392 88.5h32v48h-32zm0 0" fill="#ff7f00"/><path d="m424 136.5 40 24v-96l-40 24zm0 0" fill="#ff7f00"/><path d="m216 144.5h32v-64h-40zm0 0" fill="#ff7f00"/><path d="m296 80.5h48c8.835938 0 16 7.164062 16 16v16c0 8.835938-7.164062 16-16 16h-48c-8.835938 0-16-7.164062-16-16v-16c0-8.835938 7.164062-16 16-16zm0 0" fill="#e5c200"/><path d="m312 88.5h24c4.417969 0 8 3.582031 8 8s-3.582031 8-8 8h-24c-4.417969 0-8-3.582031-8-8s3.582031-8 8-8zm0 0" fill="#ffd700"/><path d="m368 24.5c0 13.253906-10.746094 24-24 24s-24-10.746094-24-24 10.746094-24 24-24 24 10.746094 24 24zm0 0" fill="#9c02a0"/><path d="m288 32.5c0 8.835938-7.164062 16-16 16s-16-7.164062-16-16 7.164062-16 16-16 16 7.164062 16 16zm0 0" fill="#9c02a0"/><path d="m392 120.5h32v16h-32zm0 0" fill="#db6a03"/><path d="m424 136.5 40 24v-16l-40-24zm0 0" fill="#db6a03"/><path d="m232 128.5h16v-48zm0 0" fill="#db6a03"/><path d="m216 144.5h32v-16h-34zm0 0" fill="#db6a03"/><path d="m360 32.5c-13.253906 0-24-10.746094-24-24 .035156-2.335938.410156-4.652344 1.121094-6.878906-10.980469 3.261718-18.113282 13.84375-17.011719 25.246094 1.101563 11.398437 10.125 20.421874 21.523437 21.523437 11.402344 1.101563 21.984376-6.03125 25.246094-17.011719-2.226562.710938-4.542968 1.085938-6.878906 1.121094zm0 0" fill="#800080"/><path d="m280 40.5c-5.4375.023438-10.507812-2.726562-13.457031-7.292969-2.945313-4.570312-3.363281-10.324219-1.101563-15.265625-6.527344 2.898438-10.339844 9.773438-9.347656 16.84375.992188 7.070313 6.550781 12.628906 13.621094 13.621094 7.070312.992188 13.945312-2.820312 16.84375-9.347656-2.058594.941406-4.292969 1.433594-6.558594 1.441406zm0 0" fill="#800080"/><path d="m312 312.5 80 32v-16l-80-32zm0 0" fill="#e5c200"/><g fill="#006"><path d="m216 264.5h-48c-4.417969 0-8-3.582031-8-8s3.582031-8 8-8h48c4.417969 0 8 3.582031 8 8s-3.582031 8-8 8zm0 0"/><path d="m216 304.5h-64c-4.417969 0-8-3.582031-8-8s3.582031-8 8-8h64c4.417969 0 8 3.582031 8 8s-3.582031 8-8 8zm0 0"/><path d="m312 360.5h-120c-4.417969 0-8-3.582031-8-8s3.582031-8 8-8h120c4.417969 0 8 3.582031 8 8s-3.582031 8-8 8zm0 0"/><path d="m216 400.5h-64c-4.417969 0-8-3.582031-8-8s3.582031-8 8-8h64c4.417969 0 8 3.582031 8 8s-3.582031 8-8 8zm0 0"/><path d="m312 400.5h-56c-4.417969 0-8-3.582031-8-8s3.582031-8 8-8h56c4.417969 0 8 3.582031 8 8s-3.582031 8-8 8zm0 0"/><path d="m200 432.5h-48c-4.417969 0-8-3.582031-8-8s3.582031-8 8-8h48c4.417969 0 8 3.582031 8 8s-3.582031 8-8 8zm0 0"/><path d="m288 432.5h-48c-4.417969 0-8-3.582031-8-8s3.582031-8 8-8h48c4.417969 0 8 3.582031 8 8s-3.582031 8-8 8zm0 0"/><path d="m424 240.5c-3.527344.003906-6.640625-2.300781-7.664062-5.675781-1.023438-3.375.28125-7.023438 3.214843-8.980469l24-16c3.675781-2.453125 8.644531-1.460938 11.097657 2.214844 2.453124 3.675781 1.460937 8.644531-2.214844 11.097656l-24 16c-1.3125.875-2.855469 1.34375-4.433594 1.34375zm0 0"/><path d="m448 344.5c-1.578125 0-3.121094-.46875-4.433594-1.34375l-24-16c-3.675781-2.453125-4.667968-7.421875-2.214844-11.097656 2.453126-3.675782 7.421876-4.667969 11.097657-2.214844l24 16c2.933593 1.957031 4.238281 5.605469 3.214843 8.980469-1.023437 3.375-4.136718 5.679687-7.664062 5.675781zm0 0"/><path d="m464 280.5h-32c-4.417969 0-8-3.582031-8-8s3.582031-8 8-8h32c4.417969 0 8 3.582031 8 8s-3.582031 8-8 8zm0 0"/></g><path d="m32 144.5h128c17.671875 0 32 14.328125 32 32v64c0 17.671875-14.328125 32-32 32h-128c-17.671875 0-32-14.328125-32-32v-64c0-17.671875 14.328125-32 32-32zm0 0" fill="#ffd700"/><path d="m184 248.5h-128c-17.671875 0-32-14.328125-32-32v-64c.015625-2.402344.308594-4.796875.863281-7.136719-14.527343 3.324219-24.8359372 16.234375-24.863281 31.136719v64c0 17.671875 14.328125 32 32 32h128c14.902344-.027344 27.8125-10.335938 31.136719-24.863281-2.339844.554687-4.734375.847656-7.136719.863281zm0 0" fill="#e5c200"/><path d="m128 208.5c0 17.671875-14.328125 32-32 32s-32-14.328125-32-32 14.328125-32 32-32 32 14.328125 32 32zm0 0" fill="#9c02a0"/><path d="m136 112.5c8.835938 0 16 7.164062 16 16v16h-32v-16c0-8.835938 7.164062-16 16-16zm0 0" fill="#800080"/><path d="m40 240.5c0 4.417969-3.582031 8-8 8s-8-3.582031-8-8 3.582031-8 8-8 8 3.582031 8 8zm0 0" fill="#9c02a0"/><path d="m120 224.5c-17.671875 0-32-14.328125-32-32 .035156-5.488281 1.492188-10.871094 4.230469-15.625-14.992188 1.726562-26.726563 13.71875-28.128907 28.746094-1.398437 15.027344 7.914063 28.984375 22.328126 33.453125 14.417968 4.46875 29.992187-1.765625 37.339843-14.949219-1.25.199219-2.507812.324219-3.769531.375zm0 0" fill="#800080"/></svg>